HIERARCHY
ROOT simHips
{
  OFFSET -0.552975 97.5629 0.336457
  CHANNELS 6 Xposition Yposition Zposition Zrotation Xrotation Yrotation
  JOINT simSpine
  {
    OFFSET -0.000355721 21.3001 -0.016921
    CHANNELS 3 Zrotation Xrotation Yrotation
    JOINT simLeftArm
    {
      OFFSET 13.5181 21.3012 0
      CHANNELS 3 Zrotation Xrotation Yrotation
      JOINT simLeftForeArm
      {
        OFFSET 24.5783 0 0
        CHANNELS 3 Zrotation Xrotation Yrotation
        JOINT simLeftHand
        {
          OFFSET 24.5783 0 0
          CHANNELS 3 Zrotation Xrotation Yrotation
          End Site
          {
            OFFSET 7.32568 1.52588e-05 0.0169305
          }
        }
      }
    }
    JOINT simHead
    {
      OFFSET 0 27.4458 -0.00489235
      CHANNELS 3 Zrotation Xrotation Yrotation
      End Site
      {
        OFFSET 0 0 0
      }
    }
    JOINT simRightArm
    {
      OFFSET -13.5174 21.3012 0
      CHANNELS 3 Zrotation Xrotation Yrotation
      JOINT simRightForeArm
      {
        OFFSET -24.5783 0 0
        CHANNELS 3 Zrotation Xrotation Yrotation
        JOINT simRightHand
        {
          OFFSET -24.5783 0 0
          CHANNELS 3 Zrotation Xrotation Yrotation
          End Site
          {
            OFFSET -7.32568 1.52588e-05 0.0169305
          }
        }
      }
    }
  }
  JOINT simRightUpLeg
  {
    OFFSET -8.44614 -9.41038 0.835684
    CHANNELS 3 Zrotation Xrotation Yrotation
    JOINT simRightLeg
    {
      OFFSET 0 -40.9639 0
      CHANNELS 3 Zrotation Xrotation Yrotation
      JOINT simRightFoot
      {
        OFFSET 0 -40.9639 0
        CHANNELS 3 Zrotation Xrotation Yrotation
        End Site
        {
          OFFSET 0.50614 -9.67405 14.6709
        }
      }
    }
  }
  JOINT simLeftUpLeg
  {
    OFFSET 8.44614 -9.41038 0.835684
    CHANNELS 3 Zrotation Xrotation Yrotation
    JOINT simLeftLeg
    {
      OFFSET 0 -40.9639 0
      CHANNELS 3 Zrotation Xrotation Yrotation
      JOINT simLeftFoot
      {
        OFFSET 0 -40.9639 0
        CHANNELS 3 Zrotation Xrotation Yrotation
        End Site
        {
          OFFSET -0.50614 -9.67405 14.6709
        }
      }
    }
  }
}
MOTION
Frames:	18
Frame Time:	0.0333333
-0.552975 97.5629 0.336457 -1.50853 7.10365 -32.8815 3.48123 1.61583 2.53346 -34.3698 -52.4306 -21.9009 0.000605405 -1.12472e-05 -137.484 -1.00187 -43.048 11.7967 -3.48652 3.02629 38.2283 66.9233 19.8158 54.6133 -2.82548e-05 -1.15322e-05 112.203 -5.43471 -9.63155 -2.79709 -18.8639 -22.7058 -13.7977 0.956023 37.0984 9.60572 16.3755 -17.1164 9.32753 32.0881 -31.423 18.5084 0.124536 36.1352 -0.211665 -17.9069 -3.63066 -0.0751159 
-0.641785 97.6588 0.290277 -1.54445 6.99921 -32.5903 3.35345 1.55007 2.51911 -33.3106 -52.2183 -21.8211 0.000605581 -1.1083e-05 -136.58 -1.41142 -42.4554 11.2567 -3.56068 3.52062 38.7678 66.5922 19.8816 54.956 -2.8287e-05 -1.14529e-05 112.042 -5.42809 -9.5937 -2.8058 -18.7115 -22.3873 -13.5208 0.954008 36.8604 9.61162 16.32 -17.2167 8.84689 31.83 -31.193 18.1474 0.10046 35.5483 -0.193771 -17.9185 -3.33341 -0.0160336 
-0.703137 97.4719 0.0148306 -1.40587 7.4463 -32.048 3.17885 1.4114 2.50932 -32.1366 -52.0502 -21.8126 0.000605728 -1.09414e-05 -135.812 -1.71279 -41.1325 10.3358 -4.31482 3.60784 38.7457 66.4422 19.7746 55.4829 -2.83156e-05 -1.1382e-05 111.899 -5.30461 -9.83553 -2.85857 -18.5637 -23.3644 -13.2989 0.900908 37.8981 9.6081 16.2125 -17.8896 8.06288 32.241 -32.1905 18.369 0.0307298 35.7594 -0.492981 -17.9067 -3.1291 0.0276812 
-0.750118 96.9056 -0.355778 -1.24723 8.07755 -31.4395 2.99522 1.38842 2.49772 -31.7731 -51.7428 -21.8308 0.00060563 -1.10364e-05 -136.326 -1.45171 -40.6758 10.1378 -5.51387 3.61506 38.2265 66.1568 19.4404 55.6666 -2.82527e-05 -1.15373e-05 112.213 -5.09437 -10.3188 -2.92022 -18.6339 -25.2817 -13.2683 0.854358 40.4186 9.56761 16.1082 -19.186 7.48009 33.3434 -34.1109 19.3094 -0.0535043 37.3592 -1.33163 -17.8522 -3.46825 0.0444148 
-0.81113 95.884 -0.845069 -1.31044 8.70456 -30.5924 2.89188 1.49389 2.54012 -32.782 -50.4475 -22.0391 0.000605307 -1.13354e-05 -137.977 -0.741828 -41.2037 10.6921 -6.65193 3.71354 37.3676 65.7792 19.065 55.4185 -2.80854e-05 -1.19388e-05 113.03 -4.84689 -10.9288 -2.97816 -18.8415 -27.7992 -13.4768 0.829993 44.4519 9.4883 16.0042 -21.1721 7.09518 35.3556 -36.7669 21.0828 -0.178484 40.4149 -2.93317 -17.6734 -4.34996 0.0174005 
-0.90725 94.4388 -1.46832 -1.66941 9.09821 -29.2795 2.81456 1.6618 2.68677 -35.2945 -47.2174 -22.7261 0.000604919 -1.16736e-05 -139.911 0.141018 -42.0324 11.6078 -7.2533 3.97468 36.5495 65.4516 18.8783 54.8451 -2.78499e-05 -1.24782e-05 114.135 -4.62812 -11.4884 -3.0346 -19.2835 -30.3896 -14.0799 0.837521 49.5984 9.37433 15.9272 -23.7051 6.86674 38.0187 -39.8456 23.3206 -0.356782 44.4354 -4.89961 -17.3417 -5.41998 -0.262025 
-1.00599 92.6777 -2.17254 -2.00261 9.24172 -27.6711 2.75095 1.86444 2.97614 -38.4326 -42.1688 -23.5661 0.000604632 -1.19092e-05 -141.305 0.869304 -42.2263 12.2727 -7.2694 4.20129 36.1518 65.4455 19.1714 54.1653 -2.76338e-05 -1.29497e-05 115.109 -4.46508 -11.9122 -3.09616 -20.3711 -32.9205 -15.2984 0.897564 55.2862 9.21404 15.9626 -26.4111 6.97238 40.7262 -43.2182 25.4731 -0.55234 48.8575 -6.34797 -17.0151 -6.37106 -0.981044 
-1.02552 90.7632 -2.82642 -1.77953 9.40386 -26.6467 2.68998 2.04309 3.46218 -40.7651 -37.177 -23.5386 0.000604513 -1.20039e-05 -141.877 1.2472 -41.3599 12.2233 -7.25343 3.83748 36.6315 65.7182 20.4343 53.9246 -2.75583e-05 -1.31097e-05 115.441 -4.34154 -12.2204 -3.16055 -22.4589 -35.8052 -17.051 1.04633 60.9013 8.97397 16.2036 -28.721 7.79666 43.1577 -46.6808 27.4487 -0.69955 53.3273 -6.83163 -16.9763 -7.34441 -1.74075 
-0.8782 88.9189 -3.29213 -0.714858 9.87781 -27.4791 2.59138 2.12124 4.15164 -41.0112 -34.6968 -21.428 0.000604514 -1.20027e-05 -141.869 1.33184 -39.9539 11.5504 -7.72663 2.38536 38.5686 65.9289 23.2788 54.7963 -2.7706e-05 -1.27944e-05 114.787 -4.25719 -12.3852 -3.22061 -25.3036 -39.5883 -18.7964 1.32536 65.7683 8.61652 16.6173 -29.9958 9.62837 45.698 -49.5462 29.7701 -0.757976 57.6121 -6.48944 -17.4796 -8.72284 -1.87759 
-0.493906 87.3918 -3.48111 0.993328 10.6523 -31.0427 2.47669 2.11991 4.88238 -38.1343 -35.3929 -16.1321 0.00060456 -1.1967e-05 -141.653 1.08114 -39.0179 10.6837 -8.45384 -0.0650942 42.21 65.8714 27.9149 56.8195 -2.80269e-05 -1.20755e-05 113.309 -4.26614 -12.2521 -3.2658 -27.9726 -44.3908 -19.8933 1.74446 69.1888 8.14091 16.9975 -29.7287 12.4639 48.6916 -50.95 32.6575 -0.555681 61.5369 -5.01036 -18.7522 -10.5589 -1.67951 
0.177273 86.352 -3.33907 2.87031 11.4141 -37.2247 2.33183 2.1041 5.38087 -31.9464 -37.6333 -7.68871 0.000604695 -1.18589e-05 -141.003 0.0951215 -38.5949 9.60906 -8.88089 -2.9701 47.0358 65.3106 33.6431 59.2775 -2.83652e-05 -1.12577e-05 111.647 -4.45025 -11.6594 -3.27321 -29.392 -49.6497 -19.9568 2.23327 70.6701 7.6318 17.1372 -27.7702 16.1117 51.792 -50.3161 35.4784 -0.12425 64.9556 -1.7808 -20.9836 -12.4871 -2.07374 
1.12352 85.8102 -2.85604 4.51798 11.8833 -44.9729 2.20611 2.1165 5.46268 -23.1728 -39.2653 2.00714 0.000605199 -1.14323e-05 -138.524 -1.53998 -36.6509 7.66419 -8.78285 -5.80955 51.7193 63.8934 38.8999 61.5333 -2.86254e-05 -1.05787e-05 110.282 -4.87928 -10.5655 -3.20358 -29.0704 -54.4457 -19.0083 2.66795 70.2135 7.21146 16.9813 -24.4249 20.3065 53.8214 -48.0796 37.0629 0.610111 67.7935 2.64483 -24.0104 -14.1959 -2.94415 
2.19943 85.6312 -2.15263 5.68291 12.1334 -52.6939 2.30688 2.11547 5.09945 -12.7018 -38.3485 10.5149 0.00060642 -1.02232e-05 -132.066 -2.00697 -30.6075 4.73597 -8.44774 -8.22168 54.1242 61.6521 41.5527 63.5743 -2.88617e-05 -9.91602e-06 108.961 -5.56854 -9.08375 -3.02812 -27.3617 -58.042 -17.5898 3.05484 68.3925 6.94228 16.5624 -20.4445 24.5232 54.6217 -45.2679 37.3729 1.50337 69.9642 6.25429 -27.0121 -15.8236 -2.94325 
3.14065 85.6275 -1.48909 6.1002 12.5818 -58.7166 2.87409 2.01458 4.25763 -1.96921 -32.8652 15.7837 0.000608287 -7.66385e-06 -120.15 0.381465 -21.0517 1.99211 -8.48505 -9.58212 52.6593 59.9046 39.4484 64.7417 -2.91784e-05 -8.94112e-06 107.037 -6.39686 -7.51394 -2.76223 -24.2762 -60.1619 -15.8184 3.14838 66.1779 6.81201 15.9753 -16.9057 27.9412 55.2737 -42.7759 37.2711 2.24987 71.4188 7.39183 -28.9756 -17.5997 -1.39697 
3.71655 85.6695 -1.05374 5.58329 13.5537 -62.019 3.84884 1.82928 2.8543 7.21358 -22.8289 16.3338 0.000610007 -3.22634e-06 -102.207 2.69578 -12.4731 0.400463 -9.26178 -8.93195 47.3708 60.17 32.0868 63.2036 -2.95675e-05 -7.55539e-06 104.334 -7.09021 -6.29779 -2.44764 -20.8899 -60.6471 -14.4908 3.21732 64.4301 6.77904 15.398 -14.6878 30.0138 56.7172 -40.9656 37.4005 2.6819 72.2388 6.59862 -29.6231 -19.0762 0.415754 
3.87429 85.7506 -0.733137 4.41876 14.7703 -63.015 4.75425 1.7185 1.04365 13.9242 -12.3811 10.8323 0.000609904 3.66992e-06 -76.0833 -0.0195912 -8.65492 0.0181979 -10.2463 -6.3287 39.4371 61.7629 22.3048 58.8785 -2.99009e-05 -6.10388e-06 101.538 -7.44049 -5.71212 -2.16992 -18.0887 -59.8727 -13.9166 3.2457 63.3535 6.79426 14.9737 -13.8018 31.055 58.7327 -39.5546 37.9613 2.74974 72.575 5.68414 -29.5197 -19.7122 0.872363 
3.69709 85.9851 -0.249006 3.44099 15.4227 -63.3838 5.13139 1.77242 -0.602303 17.4776 -6.57796 3.69066 0.000606989 9.55545e-06 -51.2278 -6.33422 -8.80168 0.216606 -11.1583 -4.00896 33.1943 63.0284 14.8609 54.1793 -3.00736e-05 -5.18671e-06 99.7854 -7.55003 -5.54792 -2.03774 -16.6646 -58.5308 -14.0375 3.28808 62.5174 6.7909 14.6737 -13.474 31.9687 59.7647 -37.9835 38.4951 2.62426 72.4926 5.6108 -29.3676 -19.9012 0.118203 
3.27081 86.5161 0.458885 3.33022 14.9252 -64.3951 5.03904 1.85277 -1.45229 16.6914 -6.67699 0.293127 0.000604452 1.20516e-05 -37.8316 -8.89333 -9.47155 0.06993 -12.4206 -3.9017 31.3668 63.2309 12.6799 51.1902 -3.00778e-05 -5.16202e-06 99.7383 -7.72548 -5.27339 -2.01685 -16.7733 -57.1516 -14.4059 3.3459 61.4783 6.74235 14.3929 -13.0505 33.1982 58.3505 -36.0115 38.1814 2.49522 71.7676 6.10643 -29.479 -20.3331 -0.385983 
